<?xml version="1.0" encoding="utf-8"?>
<!-- Generator: Adobe Illustrator 28.0.0, SVG Export Plug-In . SVG Version: 6.00 Build 0)  -->
<svg version="1.1" id="Livello_1" xmlns="http://www.w3.org/2000/svg" xmlns:xlink="http://www.w3.org/1999/xlink" x="0px" y="0px"
	 viewBox="0 0 253 46.4" style="enable-background:new 0 0 253 46.4;" xml:space="preserve">
<style type="text/css">
	.st0{fill:#C13221;}
	.st1{fill:#263347;}
</style>
<path class="st0" d="M32.1,46.2c-3,0-6-0.1-9,0c-9.7,0.5-18.6-7-21.7-15.2C-3.5,18,4.9,3.8,17.2,0.8c15.1-3.6,26.4,4.9,29.6,17.6
	c0.2,0.6,0.2,1.3,0.2,1.9c0.1,2.5-0.1,2.9-2.7,2.9c-8.6,0.1-17.2,0.1-25.9,0.1c-1.3,0-2.7,0-4,0.1c-1.7,0.1-2.2,1-1.8,2.7
	c1.4,5,5.8,8.4,11.4,8.5c5.6,0.1,11.3,0,16.9,0c1.2,0,2.3,0,3.5,0c1.6,0,2.4,0.6,2.4,2.3c-0.1,2.3-0.1,4.6,0,6.9
	c0,1.7-0.8,2.3-2.4,2.3C40.3,46.2,36.2,46.2,32.1,46.2C32.1,46.2,32.1,46.2,32.1,46.2z"/>
<g>
	<path class="st1" d="M145,0.1c-0.2,0-0.3,0-0.5,0c-4.2,0.1-4.2,0.1-4.2,4c-0.1,5.9,0.1,11.8-0.1,17.6c-0.1,2.1-0.3,4.3-1,6.2
		c-1.8,5.2-7.7,8.4-13.1,7.6c-5.5-0.8-9.9-5.5-10.3-11c-0.1-1.6,0-3.3,0-4.9c0-8.2,0-8.1-8.1-7.5c-2,0.1-2.6,1-2.5,2.8
		c0.1,2.8,0.1,5.6,0,8.3c-0.2,7.3-5.6,12.6-12.5,12.5c-5.7,0-12.1-4.9-11.9-12.6c0.2-5.7,0.1-11.4,0-17.2c-0.1-6.3,1-6-6.2-6
		c-0.3,0-0.7,0-1,0c-3.1,0.2-3.4,0.3-3.4,3.5c0,7.3,0,14.7,0.1,22.1c0,1.6,0.3,3.3,0.8,4.8c5,16.6,24.9,19.9,35.8,11.1
		c3.3-2.7,3.5-2.6,6.9,0c5.8,4.5,12.3,5.5,19.3,4c9.7-2.1,16.9-10.8,17.4-20.8c0.2-3.6,0-7.2,0-10.8c0,0,0,0,0.1,0
		c0-2.8,0-5.6,0-8.3C150.6-0.1,151.3,0.1,145,0.1z"/>
	<path class="st1" d="M211.9,34.9c-7.2-2.7-8.6-4.5-8.4-11.9c0.2-10.7-8.9-23.2-24.1-22.9c-0.9,0.1-2.4,0.1-3.8,0.3
		c-0.8,0.1-1.6,0.3-2.4,0.6c-11.3,3.4-18.1,14.1-16.2,25.8c1.8,11.5,10.9,19.1,22.7,19.3c5.7,0.1,10.8-1.5,15.2-5
		c2-1.6,3.1-1.3,5.1,0c2.7,1.8,5.7,3.4,8.8,4.4c4.9,1.6,5.8,0.8,5.8-4.2c0-1-0.1-2,0-2.9C214.7,36.5,213.7,35.6,211.9,34.9z
		 M180.1,35.6c-6.8-0.1-12.5-5.8-12.5-12.6c0-6.8,5.6-12.3,12.6-12.3c6.9,0,12.6,5.6,12.7,12.4C192.9,29.4,186.5,35.7,180.1,35.6z"
		/>
	<path class="st1" d="M238.5,21.2c6.6-2.9,11.3-7.6,13.1-14.5c1.9-7.2,2.8-6.6-4.8-6.6c-4,0-4,0-5.5,3.7c-3,7.2-10.8,10.2-17.6,6.8
		c-3.3-1.6-5.5-4.2-6.4-7.7c-0.5-2.1-1.8-3-4-2.8c-0.7,0-1.3,0-2,0c-0.8,0-1.7,0-2.5,0c-2.7,0.2-3.1,0.7-2.9,3.3
		c0.1,0.8,0.3,1.6,0.5,2.4c1.8,6.7,5.9,11.7,12.2,14.7c2.9,1.4,4,3,4.6,6.1c1.8,10.1,9.4,17.6,18.8,19.3c3.6,0.6,4.1,0.2,4.2-3.2
		c0-1.5-0.1-3,0-4.4c0.1-2.1-0.3-3.2-2.8-3.6c-3.4-0.5-5.9-2.8-7.6-5.8C233.4,24.5,233.8,23.4,238.5,21.2z"/>
</g>
</svg>
