<?xml version="1.0" encoding="utf-8"?>
<!-- Generator: Adobe Illustrator 28.0.0, SVG Export Plug-In . SVG Version: 6.00 Build 0)  -->
<svg version="1.1" id="Livello_1" xmlns="http://www.w3.org/2000/svg" xmlns:xlink="http://www.w3.org/1999/xlink" x="0px" y="0px"
	 viewBox="0 0 47.04 46.26" style="enable-background:new 0 0 47.04 46.26;" xml:space="preserve">
<style type="text/css">
	.st0{fill:#C23322;}
</style>
<path class="st0" d="M32.12,46.23c-3,0-6-0.1-9,0c-9.7,0.5-18.6-7-21.7-15.2c-4.9-13,3.5-27.2,15.8-30.2
	c15.1-3.6,26.4,4.9,29.6,17.6c0.2,0.6,0.2,1.3,0.2,1.9c0.1,2.5-0.1,2.9-2.7,2.9c-8.6,0.1-17.2,0.1-25.9,0.1c-1.3,0-2.7,0-4,0.1
	c-1.7,0.1-2.2,1-1.8,2.7c1.4,5,5.8,8.4,11.4,8.5s11.3,0,16.9,0c1.2,0,2.3,0,3.5,0c1.6,0,2.4,0.6,2.4,2.3c-0.1,2.3-0.1,4.6,0,6.9
	c0,1.7-0.8,2.3-2.4,2.3C40.32,46.23,36.22,46.23,32.12,46.23L32.12,46.23z"/>
</svg>
